<?xml version="1.0" standalone="no"?><!DOCTYPE svg PUBLIC "-//W3C//DTD SVG 1.1//EN" "http://www.w3.org/Graphics/SVG/1.1/DTD/svg11.dtd"><svg t="1617158835670" class="icon" viewBox="0 0 1032 1024" version="1.1" xmlns="http://www.w3.org/2000/svg" p-id="2761" xmlns:xlink="http://www.w3.org/1999/xlink" width="201.5625" height="200"><defs><style type="text/css"></style></defs><path d="M957.2 266.3h-337c23.3-15 45.9-33.2 58.5-53 36.1-56.5 33.6-120.4-5.8-145.6-20.1-12.9-46.8-13.1-73.3-0.7-23.4 11-45.2 31.1-61.4 56.4-15.2 23.8-22.3 59.8-25.6 92.1-2.6-44.4-10.5-101.1-32.8-135.9C460.2 49 434 24.9 406 11.7c-31.4-14.7-61.8-14.6-85.5 0.6-23.7 15.2-36.6 42.7-36.3 77.5 0.3 31 11.2 64.9 30.7 95.5 20.3 31.8 62.3 60.4 99.3 81.1H66.8C30 266.3 0 296.3 0 333.1v89c0 36.8 30 66.8 66.8 66.8H89v467.5c0 36.8 30 66.8 66.8 66.8h712.3c36.8 0 66.8-30 66.8-66.8V488.9h22.3c36.8 0 66.8-30 66.8-66.8v-89c0-36.8-30-66.8-66.8-66.8zM575.7 147.5c11.6-18.1 27.2-32.8 42.9-40.2 7-3.3 13.6-5 19.2-5 4.3 0 8 1 11 2.9 15.5 9.9 15.4 48-7.7 84.2-14.7 23-55.1 47-86.3 62.7 1.3-34.9 6.2-81.6 20.9-104.6z m-223.3 13.8c-14.9-23.3-23.5-49.4-23.7-71.8-0.1-11 1.8-30.7 15.8-39.6 5.1-3.2 10.7-4.4 16.4-4.4 10 0 19.8 3.7 26.2 6.7 20.3 9.5 40.4 28.4 55.3 51.6 20.1 31.4 25.8 96.5 26.8 140.9-39.9-19.5-96.7-52-116.8-83.4zM133.6 488.9h356.2v222.6H133.6V488.9z m0 467.5V756.1h356.2v222.6h-334c-12.2 0-22.2-10-22.2-22.3z m734.6 22.3H534.3V756.1h356.2v200.3c-0.1 12.3-10.1 22.3-22.3 22.3z m22.2-267.2H534.3V488.9h356.2v222.6z m89.1-289.3c0 12.3-10 22.3-22.3 22.3H66.8c-12.3 0-22.3-10-22.3-22.3v-89c0-12.3 10-22.3 22.3-22.3h890.4c12.3 0 22.3 10 22.3 22.3v89z" p-id="2762"></path></svg>