<?xml version="1.0" standalone="no"?><!DOCTYPE svg PUBLIC "-//W3C//DTD SVG 1.1//EN" "http://www.w3.org/Graphics/SVG/1.1/DTD/svg11.dtd"><svg t="1617158720827" class="icon" viewBox="0 0 1024 1024" version="1.1" xmlns="http://www.w3.org/2000/svg" p-id="2500" xmlns:xlink="http://www.w3.org/1999/xlink" width="200" height="200"><defs><style type="text/css"></style></defs><path d="M957.2 155.8H66.8C30 155.8 0 185.8 0 222.6V801.4c0 36.8 30 66.8 66.8 66.8h890.4c36.8 0 66.8-30 66.8-66.8V222.6c0-36.8-30-66.8-66.8-66.8z m22.3 645.6c0 12.3-10 22.3-22.3 22.3H66.8c-12.3 0-22.3-10-22.3-22.3V298.3h289.4v295.6c0 16.1 8.3 30.5 22.2 38.5 13.9 8.1 30.5 8.1 44.4 0.1L512 568.8l111.5 63.7c6.9 4 14.5 5.9 22.1 5.9 7.7 0 15.4-2 22.3-6.1 13.9-8.1 22.2-22.5 22.2-38.5V298.3h289.4v503.1zM645.7 593.9l-0.1-0.1-111.5-63.7c-13.6-7.8-30.6-7.8-44.2 0l-111.5 63.7V298.3h267.1l0.2 295.6z m44.4-340.1H44.5v-31.2c0-12.3 10-22.3 22.3-22.3h890.4c12.3 0 22.3 10 22.3 22.3v31.2H690.1z" p-id="2501"></path></svg>